<svg id="HomeNavBar" xmlns="http://www.w3.org/2000/svg" xmlns:xlink="http://www.w3.org/1999/xlink" width="412" height="66" viewBox="0 0 412 66">
  <defs>
    <pattern id="pattern" preserveAspectRatio="none" width="100%" height="100%" viewBox="0 0 384 343">
      <image width="384" height="343" xlink:href="HomeNavBar-image3.png"/>
    </pattern>
    <pattern id="pattern-2" preserveAspectRatio="none" width="100%" height="100%" viewBox="0 0 339 295">
      <image width="339" height="295" xlink:href="HomeNavBar-image4.png"/>
    </pattern>
    <pattern id="pattern-3" preserveAspectRatio="none" width="100%" height="100%" viewBox="0 0 381 351">
      <image width="381" height="351" xlink:href="HomeNavBar-image5.png"/>
    </pattern>
  </defs>
  <g id="Group_1" data-name="Group 1" transform="translate(0 -792.7)">
    <g id="Rectangle_4" data-name="Rectangle 4" transform="translate(0 800.7)" fill="#0e2c71" stroke="#707070" stroke-width="1">
      <rect width="412" height="58" stroke="none"/>
      <rect x="0.5" y="0.5" width="411" height="57" fill="none"/>
    </g>
    <circle id="Ellipse_5" data-name="Ellipse 5" cx="20" cy="20" r="20" transform="translate(13 811.7)" fill="#0e2c71"/>
    <circle id="Ellipse_5-2" data-name="Ellipse 5" cx="20" cy="20" r="20" transform="translate(98 811.7)" fill="#0e2c71"/>
    <ellipse id="Ellipse_5-3" data-name="Ellipse 5" cx="26" cy="20.5" rx="26" ry="20.5" transform="translate(180 808.7)" fill="#0e2c71"/>
    <circle id="Ellipse_5-4" data-name="Ellipse 5" cx="20" cy="20" r="20" transform="translate(268 811.7)" fill="#0e2c71"/>
    <circle id="Ellipse_5-5" data-name="Ellipse 5" cx="20" cy="20" r="20" transform="translate(353 811.7)" fill="#0e2c71"/>
    <path id="Rectangle_14" data-name="Rectangle 14" d="M13,0H399a13,13,0,0,1,13,13V66a0,0,0,0,1,0,0H0a0,0,0,0,1,0,0V13A13,13,0,0,1,13,0Z" transform="translate(0 792.7)" fill="#0e2c71"/>
  </g>
  <g id="Asset_5" data-name="Asset 5" transform="translate(28 16)">
    <image id="Asset_5-2" data-name="Asset 5" width="35" height="36" xlink:href="HomeNavBar-image.png"/>
  </g>
  <g id="Asset_6" data-name="Asset 6" transform="translate(107 18)">
    <image id="Asset_6-2" data-name="Asset 6" width="37" height="32" xlink:href="HomeNavBar-image2.png"/>
  </g>
  <line id="Line_24" data-name="Line 24" x2="50" transform="translate(263.5 64)" fill="none" stroke="#fff" stroke-linecap="round" stroke-width="3"/>
  <g id="Asset_1" data-name="Asset 1" transform="translate(188 18)">
    <rect id="Asset_1-2" data-name="Asset 1" width="37" height="33" fill="url(#pattern)"/>
  </g>
  <g id="Asset_10" data-name="Asset 10" transform="translate(269 17)">
    <rect id="Asset_10-2" data-name="Asset 10" width="39" height="34" fill="url(#pattern-2)"/>
  </g>
  <g id="Asset_2" data-name="Asset 2" transform="translate(352 18)">
    <rect id="Asset_2-2" data-name="Asset 2" width="37" height="34" fill="url(#pattern-3)"/>
  </g>
</svg>
