<svg xmlns="http://www.w3.org/2000/svg" width="20.05" height="16.04" viewBox="0 0 20.05 16.04">
  <path id="Icon_awesome-chalkboard-teacher" data-name="Icon awesome-chalkboard-teacher" d="M6.516,11.027a.717.717,0,0,0-.221.034,4.133,4.133,0,0,1-1.283.216,4.136,4.136,0,0,1-1.283-.216.715.715,0,0,0-.221-.034A3.509,3.509,0,0,0,0,14.556,1.5,1.5,0,0,0,1.5,16.04H8.521a1.5,1.5,0,0,0,1.5-1.484A3.509,3.509,0,0,0,6.516,11.027Zm-1.5-1A3.007,3.007,0,1,0,2,7.017,3.007,3.007,0,0,0,5.012,10.025ZM18.546,0H6.516a1.531,1.531,0,0,0-1.5,1.554V3.007a3.964,3.964,0,0,1,2,.558V2H18.045v9.022h-2v-2H12.03v2H9.641a3.993,3.993,0,0,1,1.243,2h7.661a1.531,1.531,0,0,0,1.5-1.554V1.554A1.531,1.531,0,0,0,18.546,0Z" transform="translate(0)" fill="#fff"/>
</svg>
