<svg xmlns="http://www.w3.org/2000/svg" width="17" height="17" viewBox="0 0 17 17">
  <path id="Icon_material-person-outline" data-name="Icon material-person-outline" d="M14.5,8.019a2.231,2.231,0,1,1-2.231,2.231A2.231,2.231,0,0,1,14.5,8.019m0,9.562c3.156,0,6.481,1.551,6.481,2.231v1.169H8.019V19.813c0-.68,3.326-2.231,6.481-2.231M14.5,6a4.25,4.25,0,1,0,4.25,4.25A4.249,4.249,0,0,0,14.5,6Zm0,9.563c-2.837,0-8.5,1.424-8.5,4.25V23H23V19.813C23,16.986,17.337,15.563,14.5,15.563Z" transform="translate(-6 -6)" fill="#fff"/>
</svg>
