<svg xmlns="http://www.w3.org/2000/svg" viewBox="0 0 445.43 446.89">

    <g id="Layer_2" data-name="Layer 2">
        <g id="Layer_1-2" data-name="Layer 1">
            <path class="cls-1" d="M282.77,435.05c1-.26,1.89-.55,2.84-.82,1.69-.49,3.39-1,5.06-1.51,1.16-.36,2.31-.75,3.46-1.13,1.43-.47,2.86-.95,4.26-1.45s2.54-.92,3.79-1.39,2.49-1,3.72-1.44,2.72-1.08,4.06-1.64l3.13-1.37c1.48-.64,3-1.29,4.43-2l1.75-.83a219.37,219.37,0,0,0,20.33-11q8.77-5.36,17-11.48c2.68-2,5.3-4.05,7.89-6.17s5.22-4.38,7.76-6.65q7.49-6.72,14.35-14.12t13.06-15.4q6.25-8.07,11.75-16.72a220.31,220.31,0,0,0,28.66-68.24q2.29-9.9,3.68-20.13h-61.2a160.32,160.32,0,0,1-26.09,61.89,157.84,157.84,0,0,1-27,29.91,160.31,160.31,0,0,1-95,38.69c-3.33.21-6.68.34-10.06.34s-6.74-.13-10.07-.34A160.75,160.75,0,0,1,79.6,291.88H57.5A181.55,181.55,0,0,0,174.05,395.45,179.2,179.2,0,0,0,194.18,400a182.78,182.78,0,0,0,20.13,2.27c3.33.18,6.69.28,10.07.28s6.73-.1,10.06-.28A182.51,182.51,0,0,0,254.57,400a178.7,178.7,0,0,0,20.13-4.58A180.71,180.71,0,0,0,310.11,381a182.76,182.76,0,0,0,17.61-10.85,180.53,180.53,0,0,0,16-12.51,183.75,183.75,0,0,0,14.41-14.05,181.45,181.45,0,0,0,40.31-71.88h20.92a200,200,0,0,1-22.55,53.62,197.6,197.6,0,0,1-11.49,17,199.79,199.79,0,0,1-12.94,15.51Q365.51,365.28,358,372c-1.82,1.61-3.69,3.15-5.56,4.69-1.35,1.12-2.73,2.22-4.1,3.31-2,1.58-4.05,3.17-6.14,4.67-1.93,1.4-3.92,2.72-5.9,4.05-3.71,2.49-7.48,4.91-11.37,7.15-2,1.13-3.94,2.24-5.94,3.3l0,0c-1.84,1-3.69,1.92-5.56,2.84-.66.33-1.33.64-2,1-1.25.6-2.5,1.2-3.76,1.77l-2.35,1c-1.17.53-2.36,1-3.54,1.54l-2.46,1c-1.19.48-2.37.94-3.56,1.39-.83.32-1.65.63-2.48.93-1.24.44-2.48.88-3.72,1.3-.79.27-1.58.55-2.38.81-1.37.45-2.76.88-4.15,1.3-.68.21-1.34.42-2,.61-2.08.61-4.16,1.19-6.26,1.73a199.81,199.81,0,0,1-20.13,4.09v20.33q10.21-1.4,20.13-3.69c2.71-.63,5.4-1.32,8.07-2.05m-88.59-14.59A201,201,0,0,1,29.42,271.75h42a159.26,159.26,0,0,1-5.19-20.13H5q1.4,10.22,3.69,20.13A221.76,221.76,0,0,0,174.05,437.1q9.9,2.29,20.13,3.69ZM149.74,191.23a79.82,79.82,0,0,1,9.86-17.63c.63-.85,1.29-1.68,2-2.5A80.29,80.29,0,0,1,173.5,159l.55-.43a81,81,0,0,1,10.07-6.89q3.38-1.95,6.94-3.58c1-.46,2.07-.91,3.12-1.34a79.5,79.5,0,0,1,18.93-5.07l1.2-.16a79.46,79.46,0,0,1,20.13,0l1.2.16a79.37,79.37,0,0,1,18.93,5.07c1.05.43,2.08.88,3.12,1.34a80.45,80.45,0,0,1,17,10.47l.56.43a81.24,81.24,0,0,1,11.95,12.08c.66.82,1.31,1.65,1.94,2.5A80.27,80.27,0,0,1,299,191.23h63a137.48,137.48,0,0,0-6-20.13c-.68-1.78-1.37-3.54-2.13-5.28a138.86,138.86,0,0,0-9.77-18.7A141.54,141.54,0,0,0,302,103.83a139.83,139.83,0,0,0-18.27-10.2q-4.43-2.07-9-3.82a139.35,139.35,0,0,0-40.26-8.9c-3.33-.23-6.68-.4-10.06-.4s-6.74.17-10.07.4a139.35,139.35,0,0,0-40.26,8.9q-4.59,1.74-9,3.82a139.06,139.06,0,0,0-18.26,10.2,141.19,141.19,0,0,0-16.09,12.38,141.64,141.64,0,0,0-26,30.91c-.79,1.27-1.55,2.56-2.29,3.85a139.33,139.33,0,0,0-7.48,14.85c-.75,1.74-1.45,3.5-2.13,5.28a139.77,139.77,0,0,0-8.89,40.26c-.23,3.33-.4,6.67-.4,10.06s.17,6.74.4,10.07a139.77,139.77,0,0,0,8.89,40.26,140.54,140.54,0,0,0,121.55,90.18c3.33.24,6.68.4,10.07.4s6.73-.16,10.06-.4A139.77,139.77,0,0,0,274.7,353c1.78-.68,3.54-1.38,5.28-2.13a141.33,141.33,0,0,0,72.2-70.14q2.06-4.42,3.81-9a138.21,138.21,0,0,0,6-20.13H299c-.43,1-.87,2.08-1.35,3.11a80.32,80.32,0,0,1-10.46,17h47a118.74,118.74,0,0,1-6.76,12.71,121.45,121.45,0,0,1-12.08,16.39q-3.39,3.87-7.09,7.45L279.62,280a80.46,80.46,0,0,1-16.47,12l29.4,29.11c-2.78,1.89-5.63,3.68-8.56,5.34s-6.12,3.32-9.29,4.77q-5,2.3-10.26,4.16c-3.23,1.13-6.52,2.16-9.87,3V296.07l-.7.27a79.65,79.65,0,0,1-19.43,5v40.45c-3.33.28-6.67.46-10.06.46s-6.74-.18-10.07-.46V301.29a80.6,80.6,0,0,1-64.57-49.67H107.41a120.51,120.51,0,0,1-3.36-20.13h40.46a81.62,81.62,0,0,1-.65-10.07c0-2.14.11-4.26.27-6.36.1-1.25.23-2.48.38-3.7H104.05a120,120,0,0,1,3.36-20.13Zm-30.39-29.42a122.41,122.41,0,0,1,7-10.84c1.49-2.07,3-4.09,4.63-6.05a120.38,120.38,0,0,1,43.12-33.29c2.07-.95,4.18-1.84,6.31-2.68a119.91,119.91,0,0,1,13.82-4.5,122.24,122.24,0,0,1,20.13-3.36c3.33-.27,6.67-.44,10.07-.44s6.73.17,10.06.44a122.24,122.24,0,0,1,20.13,3.36,119.28,119.28,0,0,1,13.82,4.5c2.13.84,4.24,1.73,6.31,2.68a122.1,122.1,0,0,1,43.13,33.29,120.1,120.1,0,0,1,11.57,16.89q2.58,4.53,4.76,9.29H311.53a101.12,101.12,0,0,0-36.83-36.83c-.67-.39-1.33-.78-2-1.15a100,100,0,0,0-18.12-7.73c-.67-.21-1.35-.39-2-.59a100.1,100.1,0,0,0-18.1-3.52c-3.31-.33-6.66-.51-10.06-.51s-6.76.18-10.07.51a100.1,100.1,0,0,0-18.1,3.52c-.68.2-1.36.38-2,.59a100,100,0,0,0-18.12,7.73c-.68.37-1.34.76-2,1.15a100.17,100.17,0,0,0-14.83,10.48q-3.48,3-6.7,6.22a102.45,102.45,0,0,0-15.3,20.13H114.59q2.18-4.77,4.76-9.29m17.87,109.94a101,101,0,0,0,36.83,36.81,99.43,99.43,0,0,0,20.13,8.89v20.94a119.75,119.75,0,0,1-20.13-7.18,121.21,121.21,0,0,1-59.46-59.46ZM71.4,171.1A161.33,161.33,0,0,1,79.54,151l.18-.32a160.79,160.79,0,0,1,10.37-18.1,164,164,0,0,1,12.29-16.18,162,162,0,0,1,14-14.43L87.92,73.45q7.42-6.84,15.52-13a200,200,0,0,1,90.74-38.12q9.93-1.48,20.13-2c3.33-.16,6.69-.25,10.07-.25s6.73.09,10.06.25q10.22.51,20.13,2A199.76,199.76,0,0,1,328.33,49L313.58,63.76a180.74,180.74,0,0,0-59-20.95,182.51,182.51,0,0,0-20.13-2.26c-3.33-.18-6.69-.29-10.06-.29s-6.74.11-10.07.29a182.78,182.78,0,0,0-20.13,2.26,180.74,180.74,0,0,0-59,20.95,183,183,0,0,0-17.32,11.15l14.44,14.44a159.82,159.82,0,0,1,61.89-26.09,162.33,162.33,0,0,1,20.13-2.53c3.33-.21,6.68-.34,10.07-.34s6.73.13,10.06.34a162.33,162.33,0,0,1,20.13,2.53,159.26,159.26,0,0,1,20.13,5.19,160.28,160.28,0,0,1,41.76,20.9L345.31,60.5q8.08,6.09,15.52,13l-28.49,28.49a166.21,166.21,0,0,1,26.32,30.61,160,160,0,0,1,18.69,38.55,158.38,158.38,0,0,1,5.19,20.13h61.2q-1.38-10.23-3.68-20.13a220,220,0,0,0-26.58-64.91q-5.34-8.76-11.48-17T389.18,73.56q-6.72-7.49-14.11-14.35t-15.4-13.07Q351.6,39.9,343,34.4A220.1,220.1,0,0,0,274.7,5.75q-9.9-2.31-20.13-3.69Q244.64.69,234.44.24C231.1.09,227.75,0,224.38,0s-6.73.09-10.07.24q-10.19.45-20.13,1.82Q184,3.46,174.05,5.75A220.1,220.1,0,0,0,105.8,34.4C100.05,38.06,94.46,42,89.08,46.14s-10.47,8.49-15.4,13.07-9.63,9.36-14.11,14.35S50.78,83.79,46.75,89.21s-7.92,11.14-11.48,17A220.5,220.5,0,0,0,14.4,151q-3.3,9.87-5.7,20.13Q6.41,181,5,191.23h61.2A158.38,158.38,0,0,1,71.4,171.1m316.2-67.49a203,203,0,0,1,11.19,17.27,199.52,199.52,0,0,1,20.54,50.22H398.41a180.73,180.73,0,0,0-37.77-69l14.28-14.29a202.28,202.28,0,0,1,12.68,15.79M57.42,151a181.58,181.58,0,0,0-7.07,20.13H29.42a200.9,200.9,0,0,1,31.73-67.49q5.94-8.2,12.68-15.79l14.29,14.29a182.5,182.5,0,0,0-23.36,33.58c-2.67,5-5.13,10.05-7.34,15.28" fill='#009444' />
            <path class="cls-2" d="M380.59,221.51l14.23,14.23,14.25-14.24-14.23-14.24Zm-352.11,0L14.25,207.26,0,221.51l14.23,14.23Zm210,211.15-14.23-14.24L210,432.66l14.24,14.23ZM431.2,207.26,417,221.51l14.23,14.23,14.24-14.24ZM298.72,221.51,313,235.74,327.2,221.5,313,207.26Zm-233.87,0L50.61,207.26,36.37,221.51,50.6,235.74Zm270.24,0,14.23,14.23,14.24-14.24-14.23-14.24Z" fill='#0d2c71' />
        </g>
    </g>
</svg>